<?xml version="1.0" standalone="no"?>
<!DOCTYPE svg PUBLIC "-//W3C//DTD SVG 20010904//EN"
 "http://www.w3.org/TR/2001/REC-SVG-20010904/DTD/svg10.dtd">
<svg version="1.0" xmlns="http://www.w3.org/2000/svg"
 width="144.000000pt" height="144.000000pt" viewBox="0 0 144.000000 144.000000"
 preserveAspectRatio="xMidYMid meet">
<metadata>
Created by potrace 1.14, written by Peter Selinger 2001-2017
</metadata>
<g transform="translate(0.000000,144.000000) scale(0.100000,-0.100000)"
fill="#000000" stroke="none">
<path d="M655 1400 c-72 -39 -142 -100 -273 -235 -234 -241 -349 -454 -299
-552 23 -43 77 -65 176 -72 l85 -6 9 -35 c11 -44 4 -120 -18 -192 -16 -49 -16
-64 -6 -99 13 -42 63 -105 112 -140 34 -24 58 -15 85 31 l18 29 20 -35 c12
-20 36 -45 54 -56 l33 -20 38 39 37 40 16 -28 c26 -45 50 -52 89 -26 19 12 42
37 51 56 l16 33 16 -31 c27 -52 50 -57 101 -20 96 69 123 149 86 254 -21 59
-25 112 -12 170 l6 30 92 6 c101 8 149 27 170 70 41 79 -20 228 -167 412 -91
114 -265 284 -347 341 -86 58 -131 67 -188 36z"/>
</g>
</svg>
